Coordinates
version=1
nRows=24
nColumns=38
inDegrees=no

Units are S.I. units (second, meters, Newtons, ...)
If the header above contains a line with 'inDegrees', this indicates whether rotational values are in degrees (yes) or radians (no).

endheader
time	pelvis_tilt	pelvis_list	pelvis_rotation	pelvis_tx	pelvis_ty	pelvis_tz	hip_flexion_r	hip_adduction_r	hip_rotation_r	knee_angle_r	ankle_angle_r	subtalar_angle_r	mtp_angle_r	hip_flexion_l	hip_adduction_l	hip_rotation_l	knee_angle_l	ankle_angle_l	subtalar_angle_l	mtp_angle_l	lumbar_extension	lumbar_bending	lumbar_rotation	arm_flex_r	arm_add_r	arm_rot_r	elbow_flex_r	pro_sup_r	wrist_flex_r	wrist_dev_r	arm_flex_l	arm_add_l	arm_rot_l	elbow_flex_l	pro_sup_l	wrist_flex_l	wrist_dev_l
0	-1.83169	1.50417	0.407841	0.745948	1.24874	0.920031	0.29478	-0.0103097	-0.303338	0.496356	0.165502	0	0	-0.0604316	-0.239008	-0.14366	0.707748	-0.0444357	0	0	-0.519467	0.117778	-0.0676878	0.272592	-0.809775	0.980752	1.63971	0.828878	0	0	-0.218794	-0.630685	0.195633	1.79276	1.54209	0	0
0.01	-1.85249	1.50273	0.423021	0.743806	1.24589	0.92052	0.29119	-0.00439496	-0.30039	0.489734	0.165231	0	0	-0.0417716	-0.24201	-0.143326	0.738939	-0.0645728	0	0	-0.52471	0.117003	-0.0628884	0.260076	-0.804425	0.971787	1.64285	0.838069	0	0	-0.201661	-0.544034	0.123012	1.74587	1.5708	0	0
0.02	-1.81984	1.50322	0.383625	0.741546	1.24342	0.921356	0.283352	0.00172301	-0.295272	0.48295	0.165533	0	0	-0.0283729	-0.244062	-0.144701	0.767794	-0.0776615	0	0	-0.534611	0.114425	-0.0579239	0.252299	-0.800086	0.966809	1.64584	0.848359	0	0	-0.215068	-0.544094	0.112092	1.7504	1.5708	0	0
0.03	-1.80011	1.5032	0.356558	0.739378	1.24091	0.922255	0.275656	0.00818481	-0.289315	0.474296	0.164566	0	0	-0.0147822	-0.245437	-0.147337	0.794303	-0.0815797	0	0	-0.543289	0.111651	-0.052085	0.242934	-0.796002	0.959781	1.64808	0.862023	0	0	-0.226525	-0.54297	0.103291	1.75187	1.5708	0	0
0.04	-1.7851	1.5032	0.334183	0.73746	1.23832	0.923308	0.267	0.0140152	-0.283949	0.463706	0.162792	0	0	-0.00187099	-0.245722	-0.150584	0.817746	-0.0772158	0	0	-0.551495	0.108994	-0.0458616	0.231161	-0.791926	0.949311	1.64983	0.877946	0	0	-0.236684	-0.540352	0.0954032	1.75065	1.5708	0	0
0.05	-1.82059	1.4848	0.361998	0.73531	1.23549	0.922618	0.261989	0.0413995	-0.271171	0.437874	0.15461	0	0	0.0367149	-0.27509	-0.168363	0.871527	-0.0629905	0	0	-0.551195	0.122646	-0.0428527	0.236703	-0.788097	0.958273	1.65162	0.897059	0	0	-0.268274	-0.528578	0.0653224	1.75698	1.5708	0	0
0.06	-1.74536	1.50502	0.27702	0.733254	1.23365	0.925688	0.248653	0.0244382	-0.26954	0.441159	0.158898	0	0	0.0212218	-0.244784	-0.161758	0.857755	-0.0613461	0	0	-0.567758	0.10071	-0.0297262	0.203108	-0.782292	0.920444	1.65231	0.930061	0	0	-0.250699	-0.53727	0.0848177	1.74583	1.5708	0	0
0.07	-1.78211	1.50501	0.303605	0.731538	1.23123	0.926724	0.243491	0.0284012	-0.262225	0.429895	0.155102	0	0	0.0354143	-0.243513	-0.169332	0.874131	-0.0527529	0	0	-0.575105	0.0975859	-0.0378694	0.219484	-0.773654	0.93901	1.64858	0.939789	0	0	-0.284805	-0.524429	0.0479073	1.75232	1.5708	0	0
0.08	-1.61489	1.5109	0.129625	0.729009	1.22991	0.928439	0.224605	0.0302296	-0.256564	0.418405	0.151176	0	0	0.0380246	-0.24147	-0.174842	0.890862	-0.0412123	0	0	-0.588061	0.086415	-0.00459852	0.157196	-0.773727	0.870007	1.66004	0.958639	0	0	-0.244944	-0.542199	0.0943325	1.74164	1.5708	0	0
0.09	-1.75032	1.50994	0.255764	0.727852	1.22727	0.929158	0.224387	0.0333931	-0.250139	0.404601	0.145014	0	0	0.0584026	-0.239234	-0.181166	0.904152	-0.0259226	0	0	-0.589914	0.0859634	-0.0221579	0.188627	-0.762739	0.905495	1.65024	0.962779	0	0	-0.291798	-0.52104	0.0414572	1.74828	1.5708	0	0
0.1	-1.75759	1.5117	0.257011	0.726288	1.22534	0.930222	0.215938	0.0357661	-0.245675	0.391497	0.142256	0	0	0.0723513	-0.237181	-0.185205	0.916773	-0.00924494	0	0	-0.595548	0.0815901	-0.0183012	0.180152	-0.756497	0.898215	1.64832	0.966926	0	0	-0.29902	-0.517563	0.0335079	1.74709	1.5708	0	0
0.11	-1.77061	1.5134	0.264904	0.724847	1.22345	0.931216	0.207518	0.0379896	-0.241752	0.378137	0.140406	0	0	0.0865595	-0.235027	-0.188859	0.926616	0.00608464	0	0	-0.600381	0.0774763	-0.0140158	0.169041	-0.750577	0.887571	1.64726	0.977415	0	0	-0.30341	-0.515166	0.028943	1.74388	1.5708	0	0
0.12	-1.79502	1.51513	0.285164	0.72356	1.22171	0.93212	0.199664	0.0395409	-0.239211	0.364337	0.136508	0	0	0.101687	-0.232174	-0.191435	0.934227	0.0202718	0	0	-0.604177	0.0735001	-0.0100238	0.158022	-0.744737	0.878437	1.64441	1.00127	0	0	-0.306195	-0.513767	0.0264328	1.73914	1.5708	0	0
0.13	-1.80045	1.51731	0.286645	0.722429	1.22017	0.933031	0.19111	0.0403196	-0.237867	0.351205	0.130928	0	0	0.115498	-0.229088	-0.194544	0.939828	0.0345415	0	0	-0.60903	0.0699964	-0.00701111	0.149522	-0.740207	0.87053	1.64339	1.02168	0	0	-0.30966	-0.513019	0.0235378	1.7354	1.5708	0	0
0.14	-1.7974	1.51949	0.280588	0.721335	1.21868	0.933958	0.182307	0.0408476	-0.238005	0.338778	0.126663	0	0	0.128832	-0.22635	-0.19742	0.943391	0.0492432	0	0	-0.61475	0.0667989	-0.0054538	0.141728	-0.735769	0.862417	1.64335	1.03562	0	0	-0.314332	-0.512323	0.0190147	1.73437	1.5708	0	0
0.15	-1.86444	1.51277	0.347006	0.720631	1.21746	0.934003	0.183021	0.0499612	-0.236272	0.330787	0.122019	0	0	0.154927	-0.225826	-0.183738	0.954286	0.0671205	0	0	-0.613135	0.0723001	0.000457821	0.130731	-0.734462	0.852314	1.64513	1.04412	0	0	-0.315343	-0.510574	0.0193755	1.73071	1.5708	0	0
0.16	-1.88977	1.51719	0.37045	0.719991	1.21599	0.935005	0.174584	0.047205	-0.234921	0.318235	0.118717	0	0	0.166885	-0.217566	-0.183134	0.951302	0.0800284	0	0	-0.61774	0.0675404	0.00344377	0.116469	-0.730734	0.837565	1.64495	1.05749	0	0	-0.313572	-0.510872	0.0217769	1.72697	1.5708	0	0
0.17	-1.86379	1.51759	0.343549	0.719135	1.21469	0.936143	0.163568	0.0508771	-0.231894	0.301881	0.111464	0	0	0.178572	-0.216077	-0.182371	0.948396	0.0912428	0	0	-0.62224	0.0680008	0.00122471	0.119843	-0.726504	0.843073	1.64035	1.06705	0	0	-0.319445	-0.508802	0.0149743	1.72403	1.5708	0	0
0.18	-1.93928	1.52207	0.417468	0.718794	1.2136	0.936655	0.16072	0.0456661	-0.231509	0.295243	0.110496	0	0	0.193201	-0.206428	-0.181409	0.943229	0.100267	0	0	-0.622804	0.0637401	-0.00161983	0.118845	-0.723892	0.844074	1.63876	1.07037	0	0	-0.322971	-0.507635	0.0118357	1.72093	1.5708	0	0
0.19	-0.737391	1.54186	-0.80096	0.719103	1.20853	0.942655	0.100516	0.0194691	-0.224676	0.272693	0.108891	0	0	0.130459	-0.172003	-0.208467	0.893375	0.0995541	0	0	-0.663336	0.0371371	-0.00340881	0.114927	-0.721694	0.841632	1.63457	1.08047	0	0	-0.326218	-0.501393	0.00985478	1.71214	1.5708	0	0
0.2	-2.37618	1.5141	0.853134	0.717418	1.20807	0.937009	0.164037	0.043471	-0.228072	0.265596	0.100947	0	0	0.233761	-0.194336	-0.183965	0.919165	0.115866	0	0	-0.577213	0.057687	0.000236375	0.109066	-0.703611	0.849986	1.59209	1.07312	0	0	-0.306248	-0.508764	0.0404873	1.67167	1.5708	0	0
0.21	-2.43947	1.51445	0.916488	0.716947	1.20668	0.937476	0.160014	0.0418456	-0.228091	0.256627	0.0992988	0	0	0.246331	-0.188729	-0.184136	0.907863	0.124629	0	0	-0.575928	0.0553204	-1.26103e-05	0.101537	-0.700932	0.844676	1.59017	1.07494	0	0	-0.306692	-0.508473	0.0405343	1.66791	1.5708	0	0
0.22	-2.37999	1.5176	0.857106	0.71633	1.20467	0.938198	0.144384	0.0454415	-0.226204	0.23861	0.0954841	0	0	0.249332	-0.188865	-0.187913	0.893563	0.135328	0	0	-0.580094	0.0559225	0.0016243	0.0927573	-0.698384	0.836918	1.58933	1.08797	0	0	-0.309403	-0.508224	0.0388749	1.66593	1.5708	0	0
0.23	-1.35296	1.5592	-0.188433	0.716302	1.19862	0.944197	0.0795756	0.0210826	-0.215413	0.211988	0.0930288	0	0	0.176791	-0.158376	-0.224012	0.830562	0.134987	0	0	-0.620368	0.027244	0.00939973	0.0722577	-0.694818	0.815755	1.58415	1.10819	0	0	-0.306005	-0.50381	0.0453794	1.65416	1.5708	0	0
